<?xml version="1.0" encoding="UTF-8"?>
<svg id="Ebene_2" data-name="Ebene 2" xmlns="http://www.w3.org/2000/svg" viewBox="0 0 300 300">
  <defs>
    <style>
      .cls-1 {
        fill: #203826;
      }

      .cls-2 {
        fill: #ededed;
      }
    </style>
  </defs>
  <g id="Ebene_1-2" data-name="Ebene 1">
    <rect class="cls-2" width="300" height="300" rx="59.31" ry="59.31"/>
    <g>
      <path class="cls-1" d="M51.1,182.39v-55.35c0-45.82,10.51-61.78,32.12-61.78,18.16,0,28.07,14.1,28.07,43.12v4.77h-26.12v-4.35c0-5.39-.6-8.71-3.6-8.71-3.15,0-3.75,3.11-3.75,8.5v23.01c3.9-6.84,8.41-9.54,14.41-9.54,12.91,0,20.11,13.06,20.11,42.71v20.94c0,33.59-11.86,49.55-30.17,49.55-20.86,0-31.07-16.38-31.07-52.87ZM81.87,206.23c3.15,0,3.75-3.32,3.75-8.71v-35.45c0-5.39-.6-8.71-3.9-8.71s-3.9,3.11-3.9,8.5v35.87c0,5.39.6,8.5,4.05,8.5Z"/>
      <path class="cls-1" d="M180.18,162.7v16.79c0,39.8-10.66,55.77-30.92,55.77s-30.32-15.34-30.32-47.89v-6.01h26.72v16.38c0,5.6.75,8.5,3.9,8.5s3.9-3.11,3.9-8.71v-34c0-6.84-.75-10.16-3.6-10.16-3.45,0-4.2,4.77-4.2,10.16h-25.97l3-96.2h52.68v29.85h-29.12l-1.65,36.9c3.45-8.09,8.41-12.02,15.61-12.02,9.91,0,19.96,6.84,19.96,40.63Z"/>
      <path class="cls-1" d="M187.53,184.46v-68.42c0-35.04,10.66-50.79,30.62-50.79s30.62,15.76,30.62,50.79v68.42c0,35.04-10.66,50.79-30.62,50.79s-30.62-15.76-30.62-50.79ZM222.05,129.53v-26.54c0-5.6-.75-8.71-3.9-8.71s-3.9,2.9-3.9,8.5v44.78l7.81-18.04ZM218.15,206.23c3.15,0,3.9-2.9,3.9-8.29v-44.78l-7.81,18.04v26.74c0,5.39.75,8.29,3.9,8.29Z"/>
    </g>
  </g>
</svg>