<?xml version="1.0" encoding="UTF-8"?>
<svg id="Ebene_2" data-name="Ebene 2" xmlns="http://www.w3.org/2000/svg" viewBox="0 0 177.98 153.07">
  <defs>
    <style>
      .cls-1 {
        fill: #203826;
      }
    </style>
  </defs>
  <g id="Ebene_1-2" data-name="Ebene 1">
    <g>
      <path class="cls-1" d="M0,105.47v-49.84C0,14.37,9.46,0,28.92,0c16.35,0,25.27,12.69,25.27,38.83v4.29h-23.52v-3.92c0-4.85-.54-7.84-3.24-7.84-2.84,0-3.38,2.8-3.38,7.65v20.72c3.51-6.16,7.57-8.59,12.97-8.59,11.62,0,18.11,11.76,18.11,38.46v18.85c0,30.24-10.68,44.62-27.17,44.62-18.79,0-27.97-14.75-27.97-47.6ZM27.71,126.94c2.84,0,3.38-2.99,3.38-7.84v-31.92c0-4.85-.54-7.84-3.51-7.84s-3.51,2.8-3.51,7.65v32.29c0,4.85.54,7.65,3.65,7.65Z"/>
      <path class="cls-1" d="M116.22,87.74v15.12c0,35.84-9.6,50.22-27.84,50.22s-27.3-13.81-27.3-43.12v-5.41h24.06v14.75c0,5.04.68,7.65,3.51,7.65s3.51-2.8,3.51-7.84v-30.61c0-6.16-.68-9.15-3.24-9.15-3.11,0-3.78,4.29-3.78,9.15h-23.38L64.46,1.87h47.44v26.88h-26.22l-1.49,33.23c3.11-7.28,7.57-10.83,14.06-10.83,8.92,0,17.97,6.16,17.97,36.59Z"/>
      <path class="cls-1" d="M122.84,107.34v-61.6c0-31.55,9.6-45.74,27.57-45.74s27.57,14.19,27.57,45.74v61.6c0,31.55-9.59,45.74-27.57,45.74s-27.57-14.19-27.57-45.74ZM153.93,57.87v-23.89c0-5.04-.68-7.84-3.51-7.84s-3.51,2.61-3.51,7.65v40.32l7.03-16.24ZM150.41,126.94c2.84,0,3.51-2.61,3.51-7.47v-40.32l-7.03,16.24v24.08c0,4.85.68,7.47,3.51,7.47Z"/>
    </g>
  </g>
</svg>