<?xml version="1.0" encoding="UTF-8"?>
<svg id="Ebene_2" data-name="Ebene 2" xmlns="http://www.w3.org/2000/svg" viewBox="0 0 212.94 40">
  <defs>
    <style>
      .cls-1 {
        fill: #142318;
      }
    </style>
  </defs>
  <g id="Ebene_1-2" data-name="Ebene 1">
    <g>
      <path class="cls-1" d="M90.03,22.75c0,.09-.01.19-.02.28-.04.04-.05.09-.02.14-.55,2.94-2.35,4.87-4.98,6.12-1.22.58-2.53.9-3.87,1.05-.05-.03-.09-.03-.13.01-.2.01-.39.02-.59.03-1.03-.03-2.06-.08-3.09,0-.25,0-.49-.01-.74-.02-.15-.1-.3-.12-.46-.02-.15,0-.3-.01-.44-.02-.25-.16-.52-.15-.8-.09-.2,0-.39-.01-.59-.02-.1-.09-.2-.09-.31-.02-.2,0-.4-.02-.59-.02-.54-.23-1.1-.12-1.65-.11-.78,0-1.57-.1-2.34.12-.6.01-1.21.02-1.81.03-.36-.12-.72-.13-1.07,0-.47-.21-.69-.58-.59-1.08.1-.53.52-.7,1-.77.52-.08,1.04-.16,1.56-.26.66-.13,1.09-.49,1.14-1.21.2-.36.12-.74.07-1.11,0-3.02.03-6.03.03-9.05,0-2.86-.01-5.73-.02-8.59.05-1.03.13-2.06-.08-3.09-.05-.63-.43-.99-.99-1.21-.57-.23-1.17-.3-1.76-.42-.4-.08-.79-.2-.97-.62,0-.22-.01-.44-.02-.66.3-.61.84-.62,1.4-.58.1.09.2.09.31.01.25.01.5.02.74.03.3.17.62.15.95.09.25,0,.49.01.74.02.2.12.41.11.61.02.91,0,1.82,0,2.73,0,.06.06.12.05.17-.01,1.9-.14,3.8-.26,5.7-.18,1.58.07,3.13.34,4.59.96,2.05.87,3.56,2.25,4.05,4.5.57,2.62-.27,4.8-2.17,6.61-.38.37-.82.68-1.23,1.02.04.26.3.25.46.31.97.4,1.88.89,2.68,1.56,1.3,1.08,2.11,2.44,2.37,4.12,0,.05.01.1.02.15,0,.09.01.18.02.27-.04.57-.04,1.15,0,1.72ZM74.59,5.05c0,.5-.02,1-.03,1.5-.03.09-.09.19-.09.28-.02,2.12-.03,4.25-.04,6.37,0,.15,0,.31.17.38,2.15-.05,4.3-.03,6.43.32.38.06.6-.07.82-.37.84-1.22,1.28-2.57,1.34-4.05.15-.26.15-.53,0-.8-.02-.23-.03-.46-.05-.68-.24-2.06-1.43-3.53-3.35-4.08-1.37-.39-2.76-.35-4.14-.09-.57.11-.97.43-1.04,1.05-.02.02-.05.03-.04.05,0,.04.02.08.03.12ZM74.6,26.09c.16,1.22.44,1.55,1.62,1.84.32.08.64.12.96.18.25.17.52.15.8.09.39,0,.79,0,1.18,0,.18.06.35.06.5-.07,2.88-.33,4.87-2.25,5.31-4.94.02-.01.05-.03.04-.04,0-.04-.02-.08-.03-.12,0-.14.02-.29.03-.43.15-.27.15-.53,0-.8-.2-2.92-1.45-4.5-4.21-5.35-.78-.24-1.57-.39-2.38-.47-.15-.13-.32-.14-.5-.08-.65-.02-1.3-.05-1.94-.07-.42-.15-.84-.16-1.25,0-.05,0-.11.02-.16.03-.25.16-.16.41-.16.62,0,2.45.02,4.91.03,7.36,0,.2-.03.41.1.59,0,.5.02,1,.02,1.5-.01.02-.04.04-.04.05,0,.04.03.08.05.12Z"/>
      <path class="cls-1" d="M27,4.74c0,.5-.02,1-.02,1.5-.17.28-.1.6-.1.89-.01,3.83-.02,7.67-.02,11.5,0,.35-.06.71.03,1.06,0,.2-.02.4-.03.6-.04.04-.04.08-.01.13-.11,1.19-.36,2.36-.79,3.47-1.5,3.85-4.4,5.96-8.42,6.61-2.05.33-4.1.27-6.11-.24-4.31-1.08-6.73-3.91-7.52-8.21-.11-.57-.2-1.15-.18-1.74.01-.07.04-.15.04-.22,0-3.6-.01-7.21-.02-10.81,0-.2.03-.41-.1-.59-.02-1.19-.03-2.39-.05-3.58-.02-.88-.24-1.18-1.1-1.38-.57-.13-1.16-.15-1.73-.28C-.04,3.23-.25,2.57.31,1.8c.06-.04.13-.08.19-.12.04-.02.08-.03.12-.03.73.03,1.46.1,2.18,0,.35,0,.7.01,1.04.02.51.14,1.01.19,1.53.03.51,0,1.02,0,1.53,0,.51.16,1.02.11,1.53-.03.35,0,.7-.01,1.05-.02.73.09,1.46.02,2.18-.01.3.03.49.2.59.47,0,.22.01.44.02.66-.17.57-.66.66-1.14.71-.5.06-1.01.11-1.5.25-.78.22-1,.49-1.02,1.29-.03,1.22-.03,2.43-.05,3.65-.01.02-.04.04-.04.05,0,.04.02.08.04.12,0,3.5,0,7,0,10.5-.01.02-.04.04-.04.05,0,.04.03.08.05.12.07,1.09.24,2.16.61,3.2.97,2.74,2.95,4.21,5.8,4.56.2.03.4.03.61.05.47.16.93.16,1.4,0,.79-.04,1.56-.18,2.31-.43,2.09-.71,3.45-2.15,4.22-4.19.42-1.12.62-2.29.67-3.49.18-.3.12-.64.12-.96,0-3.11,0-6.21-.02-9.32,0-.25.05-.51-.1-.74-.01-.86-.02-1.71-.03-2.57.1-.26.11-.51-.01-.77,0-.59-.33-.92-.87-1.09-.46-.15-.93-.23-1.41-.29-.27-.03-.55-.07-.82-.14-.39-.11-.69-.34-.72-.78-.03-.45.11-.8.59-.92.62.01,1.25.09,1.87,0,.3,0,.59.01.89.02.45.13.91.19,1.37.03.36,0,.72,0,1.07,0,.41.15.82.11,1.22-.03.3,0,.59-.01.89-.02.62.09,1.25.01,1.87,0,.47.13.61.48.58.92-.03.46-.32.73-.75.82-.54.11-1.09.16-1.63.27-.54.11-1.09.26-1.28.9-.02.01-.05.03-.05.04,0,.04.01.08.02.12Z"/>
      <path class="cls-1" d="M127.51,30.15c-.4.01-.8.02-1.2.03-.2-.1-.41-.1-.61,0-.62-.2-.77-.35-.78-.77,0-.44.24-.75.78-.89.42-.11.85-.16,1.27-.26.78-.19.91-.33.96-1.14.05-.84.04-1.68.05-2.51.05-6.58.05-13.16-.02-19.74-.02-1.56-.14-1.7-1.65-2.04-.3-.07-.6-.12-.89-.22-.38-.12-.59-.39-.59-.79,0-.37.29-.66.76-.73.68-.1,1.36-.16,2.04-.26,1.31-.18,2.6-.45,3.88-.76.58-.14.58-.13.78.35.09.41-.05.85.11,1.26-.01.96-.02,1.92-.03,2.88-.2,1.23-.13,2.47-.07,3.71v12.47c.18.11.3,0,.42-.09,2.3-1.5,4.46-3.18,6.33-5.2.36-.39.7-.81.94-1.28.45-.9.21-1.44-.75-1.73-.39-.12-.8-.15-1.16-.35-.62-.34-.68-1.02-.13-1.41.06-.04.15-.03.22-.04.22-.01.44.04.64-.09h.29c.56.21,1.13.16,1.71.1.44,0,.89,0,1.33,0,.48.07.95.1,1.41-.08.2-.01.41-.02.61-.03,0,0,.07.02.07.02l.06-.03c.15,0,.31,0,.46,0,0,0,.06.03.06.03l.07-.02c.64.36.76.68.42,1.27-.17.31-.4.58-.63.86-1.65,2.04-3.56,3.83-5.51,5.56-.85.75-.85.75-.23,1.7,1.39,2.12,2.82,4.22,4.32,6.27.3.41.62.8.95,1.18.51.6,1.16.97,1.95,1.09.08.01.15.02.23.03.41.05.74.21.82.66.07.42-.06.63-.58.92-.09-.03-.16,0-.21.07-.09,0-.18,0-.27,0-.33-.19-.7-.11-1.04-.1-.83.03-1.67-.13-2.49.1-.35,0-.69,0-1.04,0-.1-.11-.22-.12-.36-.07-.54-.07-.81-.48-1.08-.88-1.4-2.05-2.78-4.11-4.18-6.16-.32-.48-.59-1-1.02-1.43-.86.58-1.69,1.15-2.53,1.71-.29,1.12-.18,2.25-.03,3.38.04,1.36.12,1.44,1.5,1.67.27.05.55.08.82.17.77.26.9.88.33,1.5-.36.04-.73.01-1.08.13-.4-.01-.8-.02-1.2-.03-.27-.15-.54-.14-.82-.06-1.19-.04-2.38-.04-3.57,0-.28-.08-.56-.09-.82.06Z"/>
      <path class="cls-1" d="M48.87,1.19c2.42.16,4.7.8,6.83,1.94.52.28,1.01.61,1.09,1.28-.05,1.08-.09,2.16,0,3.24,0,.2-.01.39-.02.59-.04.04-.05.08-.02.13-.01.05-.03.1-.04.15-.08.03-.11.1-.09.18-.06.14-.16.24-.3.3-.26,0-.52,0-.77,0-.25-.1-.39-.32-.5-.54-.07-.13-.14-.27-.2-.41-1.23-2.92-3.51-4.32-6.6-4.56-.15-.01-.3-.02-.45-.03-.47-.16-.94-.18-1.4,0-4.37.22-7.87,2.99-9.26,7.84-.08.29-.14.59-.22.89-.17.18-.16.39-.12.61-.01.1-.03.2-.04.3-.11.1-.12.21-.08.34,0,.09-.01.19-.02.28-.04.04-.04.09-.01.14-.01.15-.02.3-.03.46-.18.3-.15.62-.09.95,0,.39,0,.79,0,1.18-.06.33-.09.65.09.95.01.15.02.3.03.45,0,.05,0,.1.01.14,0,.09.01.19.02.28-.05.13-.03.25.08.35.03.19.05.38.08.56-.03.08-.01.15.06.2.01.05.02.11.03.16-.03.17-.03.32.11.45.03.14.07.27.1.41-.03.09,0,.15.08.2.73,2.31,1.92,4.33,3.92,5.75,3.27,2.32,6.78,2.51,10.38.88,1.79-.81,2.96-2.27,3.6-4.13.07-.22.13-.44.23-.64.2-.41.5-.56.92-.53.41.03.7.28.74.65.16,1.34.16,2.68-.07,4.01-.08.47-.47.77-.86,1.03-2.16,1.44-4.5,2.44-7.08,2.84-3.2.49-6.34.24-9.33-1.04-3.97-1.7-6.59-4.62-7.78-8.8.01-.29-.05-.57-.22-.81-.01-.05-.02-.11-.03-.16.03-.05.02-.09-.02-.12-.01-.09-.03-.18-.04-.28.03-.08.02-.15-.06-.21-.01-.09-.03-.19-.04-.28.01-.02.04-.04.03-.05-.01-.04-.03-.07-.05-.11,0-.09-.01-.19-.02-.28.06-.18.05-.35-.08-.5-.01-.25-.03-.49-.04-.74.12-.51.12-1.02,0-1.53,0-.2.02-.4.03-.59.13-.15.14-.32.08-.5,0-.09.01-.18.02-.27.13-.25.19-.51.13-.79.64-3.66,2.41-6.65,5.33-8.93,2.55-1.99,5.48-3.03,8.7-3.26.32.06.64.07.95-.09.5,0,1,0,1.5,0,.26.15.53.14.81.08Z"/>
      <path class="cls-1" d="M193.89,10.64c1.5.03,3,.05,4.5,0,.28.07.56.09.82-.06.45,0,.89,0,1.34,0,.05.08.11.1.2.08.66.53.62,1.12-.11,1.44-.35.15-.72.24-1.07.38-1.05.42-1.32.93-1.03,2.02.33,1.25.81,2.46,1.24,3.67.91,2.56,1.88,5.09,2.9,7.61.07.16.11.34.25.46.2-.14.24-.38.33-.58,1.4-3.24,2.7-6.52,3.79-9.87.18-.55.38-1.11.42-1.7.06-.89-.19-1.31-1.02-1.66-.33-.14-.68-.21-.99-.38-.64-.33-.69-.83-.16-1.39.08.02.15,0,.18-.09.39-.08.79-.03,1.18-.01.21.14.43.13.66.07,1.09.03,2.19.04,3.28,0,.23.07.46.08.67-.07.35,0,.69,0,1.04,0,.05.07.12.1.2.08.64.53.59,1.11-.12,1.47-.14.07-.28.12-.43.15-.88.19-1.4.78-1.72,1.58-.58,1.44-1.15,2.87-1.72,4.31-1.82,4.6-3.66,9.19-5.82,13.65-.84,1.74-1.75,3.44-2.84,5.04-.51.76-1.07,1.48-1.75,2.1-.83.75-1.77,1.17-2.91,1.04-.83-.09-1.46-.47-1.73-1.28-.27-.81-.08-1.56.55-2.16.48-.45,1.07-.68,1.7-.79,1.05-.19,1.98-.61,2.75-1.37.77-.76,1.33-1.66,1.87-2.58.21-.35.04-.63-.07-.93-1.24-3.14-2.48-6.27-3.72-9.41-.97-2.43-1.94-4.85-2.92-7.27-.12-.31-.26-.61-.41-.9-.24-.47-.6-.81-1.13-.95-.2-.05-.39-.11-.58-.19-.75-.33-.8-.97-.12-1.5.09.02.15,0,.2-.08.45,0,.89,0,1.34,0,.31.16.64.13.96.07Z"/>
      <path class="cls-1" d="M96.37,20.61c.07.95.29,1.85.66,2.73,1.35,3.2,4.37,4.66,7.72,3.73.91-.25,1.75-.69,2.56-1.16.22-.13.42-.28.68-.33.57-.12,1,.34.85.9-.07.25-.22.45-.38.65-2.49,3.03-6.91,4.22-10.57,2.83-2.37-.9-4.04-2.56-4.93-4.9-1.39-3.65-1.14-7.24.87-10.62,1.32-2.21,3.24-3.67,5.81-4.2l.07.02.06-.03c.09,0,.19-.02.28-.03.18.05.35.05.5-.08.35,0,.69,0,1.04,0,.2.14.42.15.64.09.1,0,.19.02.29.02l.06.03.07-.02c3.08.6,5.14,2.39,6.2,5.33.05.14.09.29.12.44.21.82,0,1.2-.81,1.4-1.08.27-2.17.5-3.27.74-2.8.61-5.63,1.1-8.46,1.53-.33.29-.18.6-.06.92ZM104.57,15.35c-.01-.08-.03-.21-.06-.33-.79-2.72-4.04-3.75-6.06-1.86-.68.64-1.12,1.43-1.45,2.3-.21.55-.32,1.12-.47,1.68-.14.53-.07.62.46.51.94-.19,1.89-.37,2.83-.57,1.36-.29,2.72-.6,4.08-.92.54-.13.67-.32.67-.82Z"/>
      <path class="cls-1" d="M154.68,10.11c.35,0,.69,0,1.04,0,.2.14.42.14.64.09,3.18.31,5.96,2.71,6.72,5.8.21.86,0,1.22-.87,1.43-2.91.7-5.85,1.29-8.8,1.79-.6.1-1.2.19-1.8.29-.05,0-.1.01-.15.02-.09,0-.18.02-.27.03-.13-.05-.25-.03-.35.08-.06,0-.11.01-.17.02-.18-.01-.28.08-.29.25-.01.29-.07.59.12.86.12,1.31.5,2.53,1.2,3.65,1.63,2.61,4.61,3.58,7.65,2.5.79-.28,1.53-.68,2.24-1.12.36-.22.73-.37,1.13-.11,0,.08.03.12.11.11.04.08.07.16.11.24,0,.17-.02.34-.03.51-.05.11-.09.24-.17.34-3.51,4.47-10.04,4.72-13.57,1.3-1.8-1.74-2.68-3.92-2.88-6.37-.22-2.62.22-5.11,1.63-7.38,1.3-2.09,3.09-3.54,5.51-4.14.24-.06.5-.08.75-.12.18.05.35.05.5-.08ZM150.65,17.22c-.11.17-.27.36.07.47.56.03,1.08-.2,1.62-.3,1.85-.33,3.69-.7,5.51-1.18.82-.22.98-.51.74-1.32-.45-1.51-1.96-2.64-3.53-2.68-1.34-.03-2.33.6-3.1,1.64-.74,1-1.1,2.16-1.31,3.38Z"/>
      <path class="cls-1" d="M174.21,19.68c.01-.15.02-.29.03-.44.11-.1.12-.22.07-.35,0-.09.02-.18.03-.28.2-.39.24-.82.28-1.25.03-.14.07-.27.1-.41.08-.04.1-.11.07-.19.07-.19.13-.39.2-.58.08-.04.11-.1.09-.19,1.28-2.98,3.36-5.03,6.6-5.75,0,0,.07.02.07.02l.06-.03c.09,0,.19-.02.28-.03.18.05.35.05.5-.08h1.04c.2.14.42.14.64.08.09,0,.19.02.28.02,0,0,.06.03.06.03l.07-.02c3.2.64,5.31,2.51,6.29,5.63.31.99.09,1.36-.91,1.6-2.87.67-5.75,1.26-8.65,1.75-.98.16-1.95.32-2.93.47-.31.23-.19.5-.07.77.12,1.71.63,3.28,1.71,4.64,1.69,2.1,4.43,2.79,7.17,1.81.5-.18.99-.4,1.45-.66.24-.14.48-.28.73-.41.63-.36,1.02-.37,1.3-.02.27.34.21.75-.26,1.29-1.38,1.61-3.08,2.71-5.16,3.17-2.37.52-4.65.29-6.76-.97-2.27-1.35-3.56-3.4-4.12-5.95.05-.23,0-.44-.13-.63,0-.09-.02-.19-.03-.28.05-.13.04-.25-.07-.35-.01-.2-.03-.39-.04-.59.07-.11.08-.21-.01-.31,0-.35,0-.71,0-1.06.1-.15.12-.3.02-.46ZM186.58,15.73c.17-.16.16-.33.02-.5-.02-.07-.03-.15-.05-.22-.49-1.5-1.48-2.48-3.05-2.76-1.57-.28-2.76.4-3.66,1.66-.55.77-.89,1.64-1.1,2.57-.09.38-.23.76-.14,1.21,2.54-.43,5.02-.93,7.47-1.55.23-.06.42-.19.52-.41Z"/>
      <path class="cls-1" d="M164.28,1.07c.09,0,.19-.01.28-.02.18.06.35.05.49-.08.1,0,.19-.02.29-.03.06.06.11.05.16-.02,1.46-.18,2.89-.5,4.32-.82.29-.07.59-.2.86.07,0,.08.01.14.1.16.08.65.03,1.29.02,1.94-.19.98-.13,1.96-.07,2.95-.03,6.94-.05,13.88,0,20.82-.05.48-.13.96.07,1.42.05.44.34.63.73.76.46.15.94.15,1.4.25.22.05.44.08.63.23.28.22.4.52.33.87-.08.4-.37.58-.75.61-.25-.1-.51-.11-.76,0-.35,0-.7-.01-1.05-.02-.31-.17-.64-.14-.97-.06-1.19,0-2.38,0-3.58,0-.33-.07-.66-.1-.97.07-.35,0-.7.02-1.05.02-.36-.12-.73-.08-1.1-.11-.37-.19-.48-.51-.39-.89.09-.39.36-.6.74-.67.49-.1.99-.18,1.48-.28.51-.1.81-.38.83-.92.19-.67.14-1.35.07-2.04,0-6.33,0-12.66,0-18.99.06-.73.13-1.46-.08-2.19.01-.64-.35-.97-.93-1.11-.37-.09-.74-.16-1.1-.25-.19-.05-.4-.09-.57-.18-.61-.31-.62-.84-.05-1.36.22.02.43-.04.63-.14Z"/>
      <path class="cls-1" d="M112.77,15.85c-.02-.66-.04-1.32-.05-1.98,0-.56-.27-.91-.81-1.05-.39-.11-.79-.19-1.18-.29-.2-.05-.4-.09-.58-.17-.35-.14-.49-.43-.47-.79.01-.39.25-.61.59-.7.34-.08.7-.12,1.05-.15,1.65-.14,3.26-.48,4.86-.88.12-.03.25-.07.37-.08.44-.05.63.09.64.53.02.56-.02,1.12-.03,1.68,0,.82,0,1.65,0,2.64.25-.37.42-.61.59-.86.69-1.04,1.42-2.05,2.39-2.85,1.79-1.48,4.31-1.25,5.86.53,0,.17.02.34.02.51-.35.95-.86,1.83-1.31,2.74-.27.54-.6.59-1.11.21-.31-.22-.59-.49-.89-.71-1.12-.84-2.08-.85-3.18.03-.96.76-1.71,1.72-2.42,2.72-.13.14-.12.32-.12.5,0,1.76,0,3.52,0,5.28,0,.17-.01.35.1.51.02,1.24.04,2.48.06,3.73.02.94.17,1.14,1.1,1.35.49.11,1,.14,1.5.26.84.2,1.01.84.45,1.52-.36.05-.72.09-1.07.14-.4,0-.8-.02-1.2-.03-.36-.17-.74-.14-1.12-.07-1.19,0-2.39,0-3.58,0-.28-.08-.56-.09-.82.06-.4.01-.8.02-1.2.03-.2-.1-.41-.1-.61,0-.09-.02-.19-.04-.28-.05-.03-.08-.09-.1-.17-.09-.54-.66-.4-1.26.38-1.5.41-.12.84-.15,1.26-.26.75-.18.91-.39.94-1.15.03-.65.03-1.31.05-1.97.13-.18.1-.39.1-.59,0-2.72,0-5.44,0-8.16,0-.2.03-.41-.1-.59Z"/>
    </g>
  </g>
</svg>