<?xml version="1.0" encoding="UTF-8"?>
<svg id="Ebene_2" data-name="Ebene 2" xmlns="http://www.w3.org/2000/svg" viewBox="0 0 28.57 51.38">
  <defs>
    <style>
      .cls-1 {
        fill: #142318;
      }
    </style>
  </defs>
  <g id="Ebene_1-2" data-name="Ebene 1">
    <path class="cls-1" d="M25.68,51.37c-.74,0-1.28-.2-1.73-.58-.47-.39-.91-.81-1.34-1.24-6.11-6.09-12.22-12.19-18.33-18.29-.96-.96-1.93-1.89-2.9-2.84-.19-.19-.4-.37-.57-.58-1.09-1.29-1.06-2.89.08-4.13.55-.59,1.15-1.15,1.72-1.73C9.44,15.09,16.28,8.19,23.11,1.3c.24-.24.48-.48.75-.69,1.16-.9,2.75-.8,3.8.23,1.06,1.02,1.21,2.61.33,3.78-.28.38-.63.71-.96,1.04-5.74,5.79-11.49,11.58-17.23,17.38-.76.77-1.5,1.56-2.28,2.31-.32.31-.32.54-.02.84.34.33.66.68.99,1.02,6.3,6.29,12.6,12.57,18.91,18.86.54.54,1,1.11,1.12,1.88.29,1.79-1.18,3.46-2.85,3.43Z"/>
  </g>
</svg>