<?xml version="1.0" encoding="UTF-8"?>
<svg id="Ebene_2" data-name="Ebene 2" xmlns="http://www.w3.org/2000/svg" viewBox="0 0 210.65 35">
  <defs>
    <style>
      .cls-1 {
        fill: #142318;
      }
    </style>
  </defs>
  <g id="Ebene_1-2" data-name="Ebene 1">
    <g>
      <path class="cls-1" d="M0,34.3c.15-.75.29-1.51.44-2.26.91-4.56,1.82-9.12,2.73-13.68.82-4.11,1.65-8.23,2.47-12.34.37-1.86.74-3.72,1.11-5.58C6.83.02,6.83.01,7.25,0c.14,0,.28,0,.42,0,21.1,0,42.2,0,63.3,0,.21,0,.42-.04.68.07-.88,4.37-1.77,8.75-2.65,13.12.16.15.33.09.48.09,2.24,0,4.48,0,6.72,0,.46,0,.49.06.6-.49.82-4.11,1.66-8.22,2.49-12.33.09-.45.09-.45.54-.45,3.21,0,6.42,0,9.62,0,.48,0,.49.01.4.47-.14.69-.28,1.38-.42,2.06-1.16,5.82-2.32,11.64-3.48,17.45-.92,4.6-1.83,9.19-2.75,13.79,0,.02,0,.03,0,.05-.11.52-.11.53-.63.53-3.14,0-6.28,0-9.41,0-.6,0-.6-.01-.49-.58.79-4.01,1.59-8.02,2.38-12.03.04-.2.11-.41.08-.61-.12-.09-.25-.06-.37-.06-2.29,0-4.58,0-6.87,0-.41,0-.41,0-.5.43-.43,2.19-.86,4.37-1.29,6.56-.39,1.98-.79,3.96-1.17,5.94-.05.25-.14.38-.41.36-.1-.01-.21,0-.32,0-3,0-5.99,0-8.99,0-.29,0-.6.04-.92-.07.14-.73.28-1.45.42-2.17.87-4.37,1.74-8.74,2.62-13.12.64-3.2,1.28-6.4,1.92-9.6.02-.1.05-.21.06-.31.03-.16-.05-.23-.2-.23-.11,0-.21,0-.32,0-2.59,0-5.18,0-7.77,0-.56,0-.56,0-.67.56-1.15,5.77-2.3,11.53-3.45,17.3-.48,2.39-.95,4.79-1.42,7.18-.09.46-.09.47-.53.47-3.26,0-6.52,0-9.78,0-.07,0-.14-.01-.25-.02-.04-.31.07-.59.13-.87,1.36-6.85,2.73-13.7,4.1-20.55.23-1.15.47-2.3.7-3.46.02-.12.03-.24.05-.36.03-.15-.03-.24-.19-.24-.12,0-.25,0-.37,0-7.7,0-15.41,0-23.11,0-.09,0-.18.01-.26,0-.28-.04-.37.11-.42.35-.13.72-.28,1.45-.42,2.17-.1.48-.2.96-.29,1.44-.09.44-.07.45.35.46.12,0,.25,0,.37,0,4.62,0,9.24,0,13.86,0,.69,0,.61-.04.48.6-.44,2.26-.9,4.51-1.35,6.76q-.08.41-.52.43c-.09,0-.18,0-.26,0-4.72,0-9.45,0-14.17,0-.41,0-.42,0-.5.41-.24,1.15-.47,2.3-.7,3.46-.03.17-.09.34-.03.52.17.09.35.04.52.04,4.64,0,9.27,0,13.91,0,.81,0,.8-.11.62.76-.51,2.53-1,5.06-1.5,7.59-.1.5-.1.5-.6.51-.78,0-1.55,0-2.33,0-7.39,0-14.77,0-22.16,0-.26,0-.53.05-.82-.07Z"/>
      <path class="cls-1" d="M197.49,13.04c.23-.04.3-.17.4-.26,1.65-1.46,3.56-2.24,5.77-2.27.9-.01,1.79,0,2.66.3,2.69.91,4.37,3.32,4.32,6.15-.02,1.51-.35,2.96-.64,4.42-.83,4.16-1.67,8.33-2.5,12.49-.1.48-.09.49-.57.49-.83,0-1.66,0-2.49,0-.12,0-.25.02-.39-.1.14-.75.29-1.52.44-2.29.81-4.08,1.64-8.16,2.44-12.24.2-1.02.33-2.05.17-3.09-.25-1.64-1.64-2.94-3.29-3.09-3.32-.31-6.16,1.56-7.3,4.79-.35,1-.52,2.04-.72,3.07-.83,4.17-1.64,8.33-2.46,12.5-.08.42-.08.43-.5.44-.79.01-1.59,0-2.38,0-.57,0-.58-.01-.47-.55.18-.9.36-1.79.54-2.68.87-4.34,1.74-8.67,2.6-13.01.87-4.37,1.75-8.74,2.62-13.11.3-1.5.59-3,.89-4.49.1-.5.1-.5.61-.5.79,0,1.59,0,2.38,0,.5,0,.49.01.4.45-.63,3.08-1.25,6.16-1.87,9.24-.22,1.1-.44,2.2-.66,3.34Z"/>
      <path class="cls-1" d="M128.1,32.01c-.25.21-.51.43-.76.64-2.22,1.83-4.78,2.33-7.55,1.79-2.41-.47-4.33-2.69-4.63-5.11-.16-1.28.03-2.52.27-3.77.83-4.22,1.67-8.44,2.5-12.66.1-.48.21-.96.28-1.45.04-.26.14-.37.4-.37.9,0,1.8,0,2.7,0,.26,0,.28.12.23.33-.21,1.01-.4,2.03-.6,3.05-.74,3.72-1.48,7.44-2.22,11.15-.16.83-.23,1.67-.19,2.52.1,2.2,2.09,3.5,3.62,3.51,2.13.02,3.95-.6,5.39-2.21.86-.96,1.43-2.09,1.71-3.34.35-1.5.64-3.02.94-4.54.66-3.32,1.31-6.65,1.96-9.97.1-.5.1-.5.61-.51.81,0,1.62,0,2.43,0,.43,0,.44.02.36.41-.71,3.56-1.42,7.13-2.12,10.69-.77,3.89-1.53,7.78-2.29,11.68-.1.49-.09.49-.56.5-.83,0-1.66,0-2.49,0-.27,0-.33-.09-.28-.35.13-.65.24-1.31.36-1.96-.03-.02-.05-.04-.08-.06Z"/>
      <path class="cls-1" d="M97.07,30.95c.04.08.12.06.18.06,3.68,0,7.37-.01,11.05-.02.77,0,.77,0,.63.77-.14.76-.3,1.52-.43,2.28-.04.24-.15.34-.39.32-.16,0-.32,0-.48,0-4.81,0-9.62,0-14.44,0-.14,0-.28,0-.42,0-.51-.01-.52-.02-.43-.5.11-.59.25-1.17.35-1.76.07-.38.24-.69.49-.97,1.56-1.77,3.11-3.54,4.67-5.31,1.58-1.8,3.16-3.59,4.74-5.38,1.68-1.92,3.36-3.83,5.04-5.75.05-.05.09-.11.14-.17-.12-.17-.29-.1-.43-.1-3.38,0-6.77,0-10.15,0-.8,0-.75.1-.6-.75.13-.76.31-1.51.45-2.27.04-.24.14-.33.38-.32.23.01.46,0,.69,0,4.65,0,9.31,0,13.96,0,.54,0,.55,0,.45.51-.12.64-.26,1.27-.38,1.91-.05.27-.17.49-.35.69-2.62,2.96-5.25,5.93-7.87,8.89-2.27,2.57-4.53,5.15-6.8,7.72-.03.04-.08.07-.05.13Z"/>
      <path class="cls-1" d="M185.9,16.6c-.15-.21-.26-.39-.39-.56-.96-1.29-2.25-1.99-3.87-2.03-2.65-.06-4.69,1.04-6.17,3.21-1.23,1.8-1.98,3.79-2.32,5.93-.18,1.15-.36,2.29-.32,3.46.03.83.11,1.65.42,2.43.7,1.72,1.99,2.7,3.83,2.9,2.41.26,4.43-.54,6.06-2.32q.29-.32.57.03c.49.6.97,1.21,1.46,1.8.17.21.16.34-.04.53-1.72,1.62-3.73,2.62-6.08,2.93-1.26.17-2.5.14-3.73-.16-2.99-.73-4.82-2.63-5.57-5.58-.38-1.48-.37-2.99-.2-4.5.23-2.07.68-4.08,1.48-6.01.81-1.96,1.93-3.7,3.55-5.11,1.68-1.46,3.65-2.23,5.84-2.48,1.2-.14,2.4-.11,3.57.22,1.75.48,3.12,1.51,4.19,2.95.1.13.18.26,0,.41-.76.65-1.52,1.3-2.3,1.96Z"/>
      <path class="cls-1" d="M138.89,34.29c0-.45.14-.88.23-1.33.94-4.77,1.88-9.54,2.83-14.3.47-2.36.93-4.72,1.4-7.07.1-.5.1-.5.6-.5.79,0,1.59,0,2.38,0,.38,0,.39.03.32.4-.11.53-.22,1.07-.32,1.6-.03.18-.1.36-.05.65.37-.49.75-.85,1.16-1.16,2.33-1.77,4.89-2.23,7.67-1.31.89.29,1.61.85,2.26,1.51.17.17.21.29,0,.46-.74.65-1.47,1.31-2.2,1.98-.17.15-.28.21-.47,0-1.17-1.38-2.69-1.63-4.36-1.25-1.8.41-3.1,1.53-4.1,3.03-.71,1.05-1.09,2.23-1.33,3.47-.87,4.49-1.76,8.99-2.65,13.48-.08.42-.09.43-.5.44-.83,0-1.66,0-2.48,0-.12,0-.25.02-.38-.07Z"/>
      <path class="cls-1" d="M158.22,34.28c.01-.46.15-.92.24-1.38,1.19-5.99,2.39-11.97,3.59-17.96.23-1.15.46-2.31.7-3.46.08-.39.09-.39.48-.4.81,0,1.62,0,2.43,0,.41,0,.42.03.35.43-.49,2.48-.99,4.96-1.48,7.43-.8,4.03-1.59,8.05-2.38,12.08-.19.96-.37,1.93-.55,2.89-.08.41-.09.43-.51.43-.86,0-1.73,0-2.59,0-.09,0-.18,0-.27-.08Z"/>
      <path class="cls-1" d="M121.98,4.35c.12-.61.25-1.25.38-1.88.14-.71.29-1.41.42-2.12.05-.26.16-.35.42-.35.92.01,1.83,0,2.75,0,.34,0,.36.04.29.37-.23,1.21-.47,2.41-.71,3.62-.08.42-.09.43-.51.43-.9,0-1.8,0-2.7,0-.1,0-.21,0-.35-.09Z"/>
      <path class="cls-1" d="M135.31.06c-.01.48-.15.94-.24,1.4-.17.89-.36,1.79-.52,2.68-.04.22-.13.29-.35.29-.95,0-1.9,0-2.85,0-.33,0-.34-.04-.27-.39.21-1.06.43-2.13.65-3.19.17-.84.18-.84,1.06-.84.67,0,1.34,0,2,0,.17,0,.35-.03.53.05Z"/>
      <path class="cls-1" d="M168.35.1c-.12.59-.25,1.2-.37,1.82-.14.72-.3,1.44-.42,2.17-.04.26-.15.35-.41.35-.92-.01-1.83,0-2.75,0-.38,0-.39-.03-.32-.39.21-1.07.43-2.13.65-3.19.17-.84.18-.84,1.06-.84.72,0,1.44,0,2.16,0,.12,0,.25-.03.39.09Z"/>
    </g>
  </g>
</svg>