<?xml version="1.0" encoding="UTF-8"?>
<svg id="Ebene_2" data-name="Ebene 2" xmlns="http://www.w3.org/2000/svg" viewBox="0 0 73.93 63.57">
  <defs>
    <style>
      .cls-1 {
        fill: #142318;
      }
    </style>
  </defs>
  <g id="Ebene_1-2" data-name="Ebene 1">
    <g>
      <path class="cls-1" d="M0,43.8v-20.7C0,5.97,3.93,0,12.01,0c6.79,0,10.5,5.27,10.5,16.13v1.78h-9.77v-1.63c0-2.02-.22-3.26-1.35-3.26-1.18,0-1.4,1.16-1.4,3.18v8.61c1.46-2.56,3.14-3.57,5.39-3.57,4.83,0,7.52,4.88,7.52,15.97v7.83c0,12.56-4.44,18.53-11.28,18.53-7.8,0-11.62-6.13-11.62-19.77ZM11.51,52.72c1.18,0,1.4-1.24,1.4-3.26v-13.26c0-2.02-.22-3.26-1.46-3.26s-1.46,1.16-1.46,3.18v13.41c0,2.02.22,3.18,1.52,3.18Z"/>
      <path class="cls-1" d="M48.27,36.44v6.28c0,14.89-3.99,20.86-11.56,20.86s-11.34-5.74-11.34-17.91v-2.25h9.99v6.13c0,2.09.28,3.18,1.46,3.18s1.46-1.16,1.46-3.26v-12.71c0-2.56-.28-3.8-1.35-3.8-1.29,0-1.57,1.78-1.57,3.8h-9.71L26.77.78h19.7v11.16h-10.89l-.62,13.8c1.29-3.02,3.14-4.5,5.84-4.5,3.7,0,7.47,2.56,7.47,15.2Z"/>
      <path class="cls-1" d="M51.02,44.58v-25.58c0-13.1,3.99-18.99,11.45-18.99s11.45,5.89,11.45,18.99v25.58c0,13.1-3.99,18.99-11.45,18.99s-11.45-5.89-11.45-18.99ZM63.93,24.03v-9.92c0-2.09-.28-3.26-1.46-3.26s-1.46,1.09-1.46,3.18v16.75l2.92-6.75ZM62.47,52.72c1.18,0,1.46-1.09,1.46-3.1v-16.75l-2.92,6.75v10c0,2.02.28,3.1,1.46,3.1Z"/>
    </g>
  </g>
</svg>
