<?xml version="1.0" encoding="UTF-8"?>
<svg id="Ebene_2" data-name="Ebene 2" xmlns="http://www.w3.org/2000/svg" viewBox="0 0 67.5 35">
  <defs>
    <style>
      .cls-1 {
        fill: #142318;
      }
    </style>
  </defs>
  <g id="Ebene_1-2" data-name="Ebene 1">
    <path class="cls-1" d="M33.3,0c11.39,0,22.78,0,34.17,0,0,.21.01.42.01.63,0,6.52,0,13.04,0,19.55,0,4.67,0,9.34,0,14.01,0,.2-.04.41,0,.59.04.18.01.21-.16.21-2.03,0-4.05,0-6.08,0-.09,0-.18,0-.27-.01.04-.07,0-.14,0-.21,0-3.96,0-7.92,0-11.88,0-5.39,0-10.78,0-16.17,0-.27,0-.27-.27-.27-2.29,0-4.58,0-6.87,0-.21,0-.24.06-.24.25,0,9.43,0,18.87,0,28.3-1.4,0-2.8,0-4.21,0-.75,0-1.5,0-2.25,0,0-.24,0-.48,0-.72,0-9.2,0-18.4,0-27.6,0-.21-.07-.23-.24-.23-2.2,0-4.4,0-6.6,0-.18,0-.43-.08-.53.04-.09.11-.03.34-.03.52,0,9.04,0,18.07,0,27.11,0,.29,0,.58,0,.87-.08,0-.15.02-.23.02-6.6,0-13.21,0-19.81,0-.09,0-.18,0-.27-.01,0-.08,0-.15,0-.23,0-4.25,0-8.5,0-12.75,0-5.1,0-10.2,0-15.31,0-.16,0-.27-.22-.26-2.01,0-4.03,0-6.04,0-.15,0-.2.03-.2.19,0,8.93,0,17.85,0,26.78,0,.52,0,1.04,0,1.57-.1,0-.2.02-.31.02-1.96,0-3.92,0-5.88,0-.09,0-.18,0-.27-.01,0-.27,0-.54,0-.8,0-8.97,0-17.94,0-26.92,0-.21,0-.41,0-.62,0-.14-.05-.2-.2-.2-2.11,0-4.22,0-6.32,0C0,4.35,0,2.26,0,.17,0,.03.03,0,.17,0c8.58,0,17.15,0,25.73,0,.05.17.01.34.01.51,0,5.03,0,10.05,0,15.08,0,4.26,0,8.51,0,12.77,0,.18.08.2.23.2,1.16,0,2.32,0,3.47,0,1.16,0,2.33,0,3.49,0,.15,0,.21-.04.2-.2-.01-.17,0-.34,0-.52,0-9.12,0-18.25,0-27.37,0-.16-.03-.32,0-.47Z"/>
  </g>
</svg>