<?xml version="1.0" encoding="UTF-8"?>
<svg id="Ebene_2" data-name="Ebene 2" xmlns="http://www.w3.org/2000/svg" viewBox="0 0 165.54 40">
  <defs>
    <style>
      .cls-1 {
        fill: #142318;
      }
    </style>
  </defs>
  <g id="Ebene_1-2" data-name="Ebene 1">
    <g>
      <path class="cls-1" d="M61.03,18.87c-1.11,2.86-2.14,5.5-3.16,8.14-.96,2.48-1.92,4.96-2.85,7.45-.36.95-1.14.64-1.82.72-.64.08-.63-.38-.78-.78-1.82-5.06-3.67-10.11-5.49-15.16-1.15-3.21-2.24-6.44-3.41-9.64-.55-1.51-1.13-2.98-3.19-3.04-.53-.02-.13-.83-.22-1.28-.06-.33.23-.27.41-.23,1.99.43,4.01.33,6.02.35,1.26,0,2.51-.15,3.76-.31.27-.03.87-.35.75.37-.07.41.5,1.17-.57,1.16-1.21,0-1.91,1-1.63,2.22.42,1.83,1.2,3.53,1.82,5.29.97,2.78,2,5.53,3.01,8.3.55,1.52,1.1,3.05,1.73,4.83.61-1.56,1.12-2.9,1.64-4.23.87-2.21,1.73-4.43,2.62-6.63.21-.53.25-1,.05-1.54-.82-2.19-1.36-4.47-2.35-6.6-.44-.96-1.14-1.57-2.12-1.61-1.21-.04-.69-.89-.66-1.33.05-.6.53-.1.83-.13.82-.06,1.6.2,2.4.2,2.36,0,4.72.08,7.05-.33.31-.06.79-.17.63.44-.11.39.47,1.07-.53,1.14-1.34.1-2.07.63-1.55,2.27,1.14,3.56,2.24,7.14,3.36,10.71.67,2.14,1.36,4.28,2.1,6.6.46-1.39.88-2.59,1.26-3.81.7-2.24,1.38-4.49,2.07-6.73.7-2.27,1.39-4.53,2.1-6.8.17-.54.09-1.09.07-1.63-.02-.62-.67-.38-1-.6-.14-.09-.39-.03-.6-.03-.98,0-1.24-.39-1.01-1.35.1-.4.36-.24.54-.2,2.36.45,4.71.29,7.07,0,.25-.03.88-.32.74.4-.08.39.48,1.11-.49,1.15-1.66.08-2.69.91-3.14,2.6-.66,2.52-1.52,4.97-2.29,7.46-1.64,5.3-3.31,10.6-4.96,15.89-.2.65-.43,1.29-.56,1.96-.1.51-.39.63-.83.66q-1.51.1-1.97-1.3c-1.54-4.73-3.09-9.46-4.64-14.19-.07-.2-.12-.41-.24-.81Z"/>
      <path class="cls-1" d="M.02.03c2.89.53,5.71.96,8.54,1.37,4.37.63,8.76.69,13.13.44,3.69-.21,7.4-.59,11.01-1.47.22-.05.46-.01.69-.04.57-.06,1.26-.59,1.67-.17.39.39.12,1.16.12,1.77,0,8.74,0,17.47.01,26.21,0,4.34-.94,5.26-4.87,7.16-3.81,1.84-7.89,3.06-11.85,4.54-1.13.42-1.99-.04-2.92-.37-2.99-1.05-6-2.06-8.92-3.28-1.59-.67-3.21-1.38-4.6-2.48C.66,32.6,0,31.26,0,29.47.04,19.95.02,10.43.02.91c0-.29,0-.57,0-.89ZM1.57,27.3h0c0,.58.03,1.16,0,1.74-.09,1.34.47,2.37,1.41,3.26,1.47,1.39,3.32,2.1,5.13,2.84,2.79,1.14,5.65,2.11,8.47,3.16.55.21,1.09.22,1.65.01,1.01-.37,2.03-.69,3.04-1.07,2.96-1.1,5.96-2.08,8.79-3.51,1.56-.79,3-1.77,3.39-3.6.39-1.85.11-3.74.17-5.62,0-.28-.14-.35-.38-.31-1.93.32-3.86.64-5.79.95-1.66.27-3.33.47-5.01.6-1.53.12-3.07.26-4.36,1.23-.48.36-.9.32-1.32-.12-.46-.48-1.08-.64-1.7-.79-1.86-.43-3.78-.44-5.67-.67-2.44-.3-4.86-.73-7.29-1.11-.64-.1-.52.13-.52.47,0,.84,0,1.68,0,2.52ZM1.57,7.08h0c0,1.36.06,2.73-.02,4.09-.05.84.32,1.1,1.04,1.2,1.55.21,3.12.38,4.64.73.81.18,1.08.06,1-.75-.06-.57.17-.63.71-.52,1.2.24,2.41.46,3.63.53,1.52.08,2.98.39,4.39.92.4.15.78.22,1.17.02,1.15-.61,2.44-.69,3.69-.92,1.34-.25,2.74-.09,4.06-.52.74-.24,1.13-.13.98.76-.08.45.04.71.6.61,1.68-.3,3.35-.6,5.04-.85.84-.12,1.19-.42,1.16-1.35-.07-2.67-.07-5.34,0-8.01.02-.86-.29-1.06-1.04-.93-2.06.34-4.13.61-6.19.93-2.98.45-5.98.62-8.98.79-2.49.13-4.97-.29-7.45-.52-1.49-.14-2.97-.44-4.46-.67-1.09-.17-2.19-.35-3.28-.52-.51-.08-.71.08-.69.65.04,1.45.01,2.9.01,4.35ZM25.34,18.75c0-1.48-.03-2.96.01-4.44.02-.6-.15-.84-.77-.76-2.12.27-4.29.2-6.28,1.19-.42.21-.87.31-1.39.06-2.07-1-4.35-.99-6.56-1.25-.35-.04-.59.02-.59.49.02,3.13.01,6.26.01,9.4,0,.37.13.64.55.6.76-.08,1.5.09,2.23.19,1.48.21,3.02.21,4.37.97.47.26.86.21,1.27-.02.86-.48,1.81-.67,2.76-.79,1.16-.15,2.33-.23,3.5-.35.56-.06.93-.21.9-.94-.07-1.45-.02-2.9-.02-4.35ZM26.84,19.19c0,.55,0,1.1,0,1.65,0,.34.11.44.46.38,1.68-.3,3.37-.57,5.06-.84,1.26-.2,1.26-.18,1.26-1.48,0-.69-.03-1.39,0-2.08.03-.62-.17-.7-.76-.57-1.38.32-2.79.57-4.19.78-1.83.28-1.83.25-1.83,2.16ZM1.53,18.14h.03c0,.46.06.94-.02,1.39-.11.61.32.8.71.84,1.84.19,3.65.57,5.48.85.39.06.63-.15.62-.6-.02-.95,0-1.91,0-2.87,0-.28-.03-.51-.39-.56-1.51-.22-3.01-.47-4.52-.7-.6-.09-1.21-.17-1.81-.25l-.1,1.9Z"/>
      <path class="cls-1" d="M135.75,23.34c0,2.43-.04,4.86,0,7.28,0,.61.19,1.22.38,1.8.1.3.35.57.73.66,1.18.28,1.18.29,1.1,1.59-.04.04-.08.07-.12.11-2.97,0-5.95,0-8.92,0-.04-.04-.08-.07-.12-.11-.01-.23,0-.47-.03-.69-.1-.67.06-1.02.85-.9.77.12,1.06-.51,1.22-1.09.15-.51.21-1.06.21-1.61-.02-3.28-.03-6.56,0-9.84.01-1.51-.27-2.95-1.64-3.72-1.55-.87-3.17-.5-4.66.36-.79.45-1.36,1.15-1.96,1.81-.23.26-.28.6-.28.96,0,3.77,0,7.55,0,11.32,0,1.16.68,1.93,1.78,1.97.46.02.52.2.49.57-.03.29-.02.58-.03.87-.04.04-.08.07-.12.11-3.03,0-6.07,0-9.1,0-.04-.04-.08-.07-.12-.11-.01-.23,0-.46-.03-.69-.08-.64.08-.97.84-.91.81.06,1.26-.43,1.42-1.44.09-.59.14-1.2.14-1.8,0-6.61,0-13.22,0-19.83,0-.74-.15-1.47-.23-2.2-.1-.94-.72-1.1-1.47-1.2-.23-.03-.61.15-.67-.19-.07-.42-.03-.86.01-1.29.02-.18.25-.11.37-.08,1.42.35,2.88.1,4.31.21.05.1.09.07.13,0,.41-.09.84-.05,1.27-.17.91-.26,1.02-.12,1.02.82,0,3.39,0,6.77,0,10.3,1.22-1.07,2.4-1.95,3.89-2.3,2.55-.58,5.03-.61,7.23,1.08,1.54,1.18,2.08,2.84,2.13,4.71,0,1.22,0,2.43.01,3.65Z"/>
      <path class="cls-1" d="M139.8,18.47c-.02-2.7-.06-5.39-.04-8.09,0-.84-.12-1.65-.22-2.48-.11-.92-.65-1.29-1.7-1.32-.24,0-.63.18-.69-.13-.08-.44-.18-.96.06-1.36.12-.21.52,0,.79.04,2.32.25,4.63.41,6.96.12.7-.09,1.42-.17,2.13-.22.51-.04.57.24.46.55-.12.35.45.99-.44,1.04-1.51.08-2.14.71-2.15,2.24-.02,5.31-.09,10.62.03,15.93.05,2.33.56,4.62,2.42,6.34,1.02.94,2.25,1.46,3.58,1.59,2.25.22,4.4-.16,6.3-1.54,1.47-1.07,2.29-2.52,2.65-4.28.57-2.74.25-5.52.3-8.28.05-2.78.01-5.57.01-8.36,0-.66-.08-1.31-.26-1.94-.4-1.37-.88-1.72-2.31-1.73-.23,0-.61.19-.68-.14-.08-.41-.1-.89.03-1.28.1-.31.53-.14.78-.09,2.16.45,4.31.38,6.46-.02,1.05-.2,1.34.09,1.24,1.17-.03.3-.11.37-.4.4-2.03.21-2.57.83-2.57,2.89,0,4.9.05,9.81-.02,14.71-.04,2.64-.5,5.2-2.25,7.35-1.41,1.73-3.25,2.79-5.41,3.15-3.78.63-7.51.55-10.88-1.65-2.1-1.37-3.16-3.46-3.73-5.83-.27-1.12-.41-2.26-.47-3.42.22-1.79.21-3.57,0-5.36Z"/>
      <path class="cls-1" d="M94.11,34.78c-1.12,0-2.23,0-3.35,0-.05-.09-.09-.07-.13,0-1.13-.04-2.19-.29-2.71-1.4-.23-.5-.47-.23-.62-.12-1.17.79-2.49,1.2-3.83,1.56-2.13.58-4.15.49-6.01-.84-1.15-.82-1.74-1.98-1.99-3.32-.76-3.98,1.56-6.53,4.77-7.69,2.15-.77,4.34-1.41,6.56-1.93.63-.15.97-.43.87-1.18-.12-.98.2-2-.56-2.88-1.08-1.25-3.7-1.94-5.19-.72-.72.59-.99,1.43-1.07,2.35-.11,1.33-.64,2.25-1.9,2.46-1.41.24-2.37-.42-2.45-1.87-.1-1.61.69-2.83,1.89-3.72,2.42-1.79,5.17-2.25,8.14-1.79,1.22.19,2.41.4,3.46,1.07,1.66,1.06,2.32,2.65,2.39,4.55.03.05.06.1.1.15.02,4.03.04,8.05.05,12.08,0,.78.33,1.43,1.05,1.56.81.14.72.6.7,1.12,0,.14-.02.29-.03.43-.04.04-.08.07-.12.11ZM87.71,30.62c.04-.13.13-.26.13-.39,0-2.2,0-4.4,0-6.6,0-.17.02-.35-.15-.47-1.66.3-3.23.88-4.73,1.64-1.26.64-2.19,1.59-2.67,2.98-.55,1.57.4,3.53,2.02,3.91,1.96.47,3.73-.04,5.4-1.07Z"/>
      <path class="cls-1" d="M112.34,14.43c0,1.81,0,3.63,0,5.44-.04.04-.07.08-.11.12-.2.01-.41,0-.61.03-.67.1-1.03-.1-1.34-.8-.8-1.8-2.03-3.2-4.06-3.7-1.55-.38-3.36.2-4.08,1.43-.38.65-.36,1.35.03,2.01.87,1.45,2.4,1.97,3.82,2.61,1.88.85,3.76,1.64,5.5,2.79,3.22,2.15,3.07,6.88-.07,9.01-2.3,1.56-4.85,2.07-7.63,1.66-1.37-.2-2.73-.38-4.08-.72-.23-.06-.55-.14-.78.18-.36.5-.94.33-1.43.33-.44,0-.27-.37-.27-.58-.01-2-.02-4,0-6.01,0-.29-.3-.87.31-.86.5,0,1.15-.41,1.49.54.52,1.46,1.32,2.77,2.51,3.85,1.81,1.65,4.83,1.72,6.61.88,2.01-.95,1.71-3.27.31-4.35-1.31-1-2.89-1.51-4.38-2.18-1.94-.87-3.97-1.57-5.52-3.13-1.82-1.83-1.92-4.53-.28-6.5,1.36-1.65,3.18-2.46,5.3-2.74,2.1-.28,4.11-.05,6.14.49.79.21,1.67.07,2.51.09.04.04.07.08.11.12Z"/>
      <path class="cls-1" d="M139.8,18.47c.21,1.79.22,3.57,0,5.36,0-1.79,0-3.57,0-5.36Z"/>
      <path class="cls-1" d="M135.75,23.34c0-1.22,0-2.43-.01-3.65.2,1.22.17,2.43.01,3.65Z"/>
      <path class="cls-1" d="M112.23,19.99s.07-.08.11-.12c.04.11,0,.15-.11.12Z"/>
      <path class="cls-1" d="M92.47,19.48c-.03-.05-.07-.1-.1-.15.08.02.15.04.1.15Z"/>
      <path class="cls-1" d="M112.34,14.43s-.07-.08-.11-.12c.11-.02.16,0,.11.12Z"/>
      <path class="cls-1" d="M120.2,5.25c-.04.08-.08.1-.13,0,.04-.04.08-.04.13,0Z"/>
      <path class="cls-1" d="M90.63,34.79c.04-.08.08-.1.13,0,0,0-.06.03-.06.03l-.07-.02Z"/>
      <path class="cls-1" d="M94.11,34.78s.08-.07.12-.11c.02.11,0,.15-.12.11Z"/>
      <path class="cls-1" d="M115.37,34.67s.08.07.12.11c-.11.04-.15,0-.12-.11Z"/>
      <path class="cls-1" d="M124.59,34.78s.08-.07.12-.11c.02.11,0,.16-.12.11Z"/>
      <path class="cls-1" d="M128.79,34.67s.08.07.12.11c-.12.04-.15,0-.12-.11Z"/>
      <path class="cls-1" d="M137.83,34.79s.08-.07.12-.11c.02.11,0,.16-.12.11Z"/>
      <path class="cls-1" d="M87.71,30.62c0-2.49-.01-4.97-.02-7.46.17.12.15.3.15.47,0,2.2,0,4.4,0,6.6,0,.13-.08.26-.13.39Z"/>
      <path class="cls-1" d="M18.51,32.69c.47.08.63-.23.88-.34.63-.28,1.48-.03,1.79.58.16.3.18.64-.07.89-.25.25-.63.24-.87.05-.45-.35-.93-.44-1.3-.06-.41.41-1.23.67-.82,1.57.12.27-.01.57-.28.75-.22.15-.42.11-.63-.05-.26-.2-.41-.48-.28-.75.48-.97-.49-1.16-.89-1.58-.28-.28-.83-.3-1.2.17-.14.17-.49.4-.67.13-.18-.27-.55-.5-.32-.99.36-.76,1.21-1.09,1.94-.67.24.14.47.31.89.6-.8-1.48-.45-2.6.52-3.64.37-.39.55-.24.81.07.82.97,1.1,2.03.48,3.27Z"/>
      <path class="cls-1" d="M27.55,29.72c-.21-1.04-.36-1.86.32-2.59.33-.35.55-.41.92-.06.41.4.55.85.52,1.39-.02.31,0,.62,0,1.02.5-.31.97-.24,1.42-.23.33,0,.52.25.5.59-.01.26.09.53-.3.71-.38.18-.44-.04-.58-.26-.19-.28-.52-.22-.67-.07-.41.4-1.1.65-.9,1.46.06.25.02.54-.37.53-.42-.02-.59-.27-.49-.64.24-.89-.48-1.09-1-1.41-.17-.11-.37-.04-.53.16-.22.27-.51.21-.77.05-.21-.13-.18-.36-.14-.55.06-.3.27-.54.58-.55.49-.01,1.03-.21,1.51.45Z"/>
      <path class="cls-1" d="M5.98,29.88c-.18-.98-.43-1.7.04-2.4.59-.89,1.02-.89,1.52.06.07.12.17.28.15.39-.2,1.08.19,1.52,1.31,1.34.32-.05.58.25.6.6.01.23.09.48-.24.65-.39.2-.47.01-.66-.25-.17-.25-.48-.2-.68-.03-.44.39-1.06.69-.86,1.48.07.29-.05.51-.41.5-.4-.01-.51-.26-.44-.58.16-.8-.37-1.12-.93-1.42-.2-.11-.49-.2-.62.04-.21.36-.48.26-.72.15-.18-.09-.23-.34-.16-.54.08-.28.2-.57.55-.59.53-.03,1.1-.13,1.56.61Z"/>
      <path class="cls-1" d="M9.22,6.43c.01.34-.15.43-.3.5-.93.44-1.06,1.14-.67,2.01.08.17.27.31,0,.5-.24.17-.3-.07-.4-.15-.72-.63-1.44-.69-2.18-.05-.17.15-.35.24-.52.07-.13-.13-.04-.3.02-.47.24-.72.33-1.4-.56-1.8-.11-.05-.53-.23-.36-.57.12-.23.37-.26.61-.22.85.15,1.38-.13,1.53-1.04.03-.18.07-.51.38-.51.36,0,.29.38.3.52.09,1.5,1.21,1.19,2.16,1.2Z"/>
      <path class="cls-1" d="M30.99,6.66c-1.49.5-1.53,1.61-.85,2.99-.34-.11-.43-.12-.49-.17q-1.22-.94-2.42-.18c-.16.1-.27.37-.49.18-.13-.11-.05-.3.03-.47.42-.91.35-1.69-.68-2.16-.15-.07-.37-.12-.26-.35.07-.14.22-.27.42-.25.09,0,.18-.01.26,0,.89.17,1.4-.16,1.5-1.09.02-.16-.07-.51.34-.48.29.02.35.24.36.41.13,1.19.84,1.51,1.91,1.34.08-.01.17.01.26.03.02,0,.02.04.1.2Z"/>
      <path class="cls-1" d="M14.95,7.35c.23-.02.37-.06.49-.04.97.12,1.6-.21,1.77-1.25.03-.17-.05-.52.32-.51.36,0,.3.33.33.51.17,1.03.73,1.46,1.77,1.25.12-.02.29.02.38.09.1.08.04.24-.07.29-1.27.6-1.31,1.55-.71,2.79-1.15-.99-2.22-1.16-3.25.2-.2-.89.45-1.42.23-2.04-.2-.57-.95-.66-1.26-1.29Z"/>
    </g>
  </g>
</svg>